<svg xmlns="http://www.w3.org/2000/svg" xmlns:xlink="http://www.w3.org/1999/xlink" preserveAspectRatio="xMidYMid" width="180.343" height="120.188" viewBox="0 0 180.343 120.188">
  <defs>
    <style>
      .cls-1 {
        stroke: #f3ea00;
        stroke-width: 3px;
        fill: none;
        fill-rule: evenodd;
      }
    </style>
  </defs>
  <path d="M36.562,9.594 C36.562,9.594 54.562,15.927 56.562,15.594 C58.562,15.261 59.562,13.594 59.562,13.594 C59.562,13.594 60.229,11.261 61.562,11.594 C62.895,11.927 57.895,0.261 62.562,1.594 C67.229,2.927 67.562,19.927 76.562,25.594 C85.562,31.261 97.229,32.927 99.562,33.594 C101.895,34.261 123.562,40.927 127.562,40.594 C131.562,40.261 144.562,62.594 144.562,62.594 C144.562,62.594 127.259,43.742 94.562,45.594 C90.162,45.843 93.562,50.594 93.562,50.594 C93.562,50.594 137.562,95.927 153.562,86.594 C152.229,86.594 157.562,79.594 157.562,79.594 C157.562,79.594 169.562,89.594 171.562,95.594 C173.562,101.594 180.229,105.594 178.562,111.594 C176.895,117.594 58.562,133.594 15.562,81.594 C-19.105,44.594 20.895,41.927 23.562,42.594 C26.229,43.261 32.562,33.594 32.562,33.594 L36.562,9.594 Z" class="cls-1"/>
</svg>
